<?xml version="1.0" standalone="no"?>
<!DOCTYPE svg PUBLIC "-//W3C//DTD SVG 20010904//EN"
 "http://www.w3.org/TR/2001/REC-SVG-20010904/DTD/svg10.dtd">
<svg version="1.0" xmlns="http://www.w3.org/2000/svg"
 width="260.000000pt" height="260.000000pt" viewBox="0 0 260.000000 260.000000"
 preserveAspectRatio="xMidYMid meet">
<metadata>
Created by potrace 1.14, written by Peter Selinger 2001-2017
</metadata>
<g transform="translate(0.000000,260.000000) scale(0.100000,-0.100000)"
fill="#000000" stroke="none">
<path d="M0 1300 l0 -1300 1300 0 1300 0 0 1300 0 1300 -1300 0 -1300 0 0
-1300z m790 445 l0 -35 -177 -2 -178 -3 -3 -142 -3 -143 146 0 145 0 0 -35 0
-35 -145 0 -145 0 0 -165 0 -165 188 -2 187 -3 3 -37 3 -38 -235 0 -236 0 0
420 0 420 225 0 225 0 0 -35z m310 -115 c51 -82 95 -152 98 -154 4 -2 52 65
106 150 l99 154 49 0 c37 0 47 -3 42 -12 -5 -7 -61 -91 -126 -187 -65 -96
-118 -178 -118 -182 0 -4 63 -108 140 -231 l140 -223 -41 -3 c-23 -2 -47 -1
-54 1 -6 3 -63 87 -125 188 -96 154 -115 179 -125 166 -6 -9 -56 -93 -111
-187 l-99 -170 -47 0 c-27 0 -48 2 -48 4 0 3 57 96 126 208 69 112 130 210
134 219 7 12 -16 57 -86 170 -53 85 -107 173 -121 197 l-25 42 50 0 51 0 91
-150z m610 -270 l0 -420 -45 0 -45 0 0 420 0 420 45 0 45 0 0 -420z m620 385
l0 -35 -177 -2 -178 -3 -3 -142 -3 -143 146 0 145 0 0 -35 0 -35 -145 0 -145
0 0 -205 0 -205 -45 0 -45 0 0 420 0 420 225 0 225 0 0 -35z"/>
</g>
</svg>
